<svg xmlns="http://www.w3.org/2000/svg" width="32" height="32" viewBox="0 0 32 32">
  <g id="Group_3" data-name="Group 3" transform="translate(-143.08 -608.296)">
    <path id="Path_79" data-name="Path 79" d="M686.08,377.45h0a16,16,0,0,1-16-16h0a16,16,0,0,1,16-16h0a16,16,0,0,1,16,16h0a16,16,0,0,1-16,16Z" transform="translate(-527 262.846)" fill="#1769ff"/>
    <path id="Path_80" data-name="Path 80" d="M687.95,377.664v-2.982h2.75a2.92,2.92,0,0,1,1.117.191,1.2,1.2,0,0,1,.712,1.2,1.415,1.415,0,0,1-.734,1.4,2.671,2.671,0,0,1-1.13.2Zm0-7.295h2.43a4.229,4.229,0,0,1,1.335.174,1.006,1.006,0,0,1,.6,1.033,1.051,1.051,0,0,1-.445.979,2.226,2.226,0,0,1-1.184.28h-2.715v-2.466Zm4.384,9.084a3.116,3.116,0,0,0,1.264-.561,3.071,3.071,0,0,0,.792-.89,3.244,3.244,0,0,0,.5-1.78,2.968,2.968,0,0,0-.445-1.638,2.5,2.5,0,0,0-1.291-.988,2.67,2.67,0,0,0,.855-.636,2.492,2.492,0,0,0,.516-1.642,2.874,2.874,0,0,0-.512-1.709,3.434,3.434,0,0,0-2.9-1.188H685.72V379.6h5.02a7.608,7.608,0,0,0,1.576-.151Z" transform="translate(-535.655 250.139)" fill="#fff"/>
    <path id="Path_81" data-name="Path 81" d="M710.487,376.738a1.709,1.709,0,0,1,1.291-.472,1.9,1.9,0,0,1,1.282.445,1.816,1.816,0,0,1,.574,1.3h-3.721a2.226,2.226,0,0,1,.574-1.277Zm-1.544,5.5a4.513,4.513,0,0,0,2.911,1.015,4.006,4.006,0,0,0,3.115-1.206,2.7,2.7,0,0,0,.8-1.491h-2.225a1.78,1.78,0,0,1-.445.565,1.821,1.821,0,0,1-1.2.378,2.225,2.225,0,0,1-1.193-.307,1.981,1.981,0,0,1-.863-1.745h6.017a10.3,10.3,0,0,0-.071-1.642,4.062,4.062,0,0,0-.659-1.709,3.338,3.338,0,0,0-1.429-1.219,4.692,4.692,0,0,0-1.94-.387,3.975,3.975,0,0,0-2.955,1.144,4.467,4.467,0,0,0-1.139,3.293,4.017,4.017,0,0,0,1.26,3.311Z" transform="translate(-547.804 246.78)" fill="#fff"/>
    <path id="Path_82" data-name="Path 82" d="M256.02,162.88h-4.86v1.13h4.86v-1.13Z" transform="translate(-89.743 456.318)" fill="#fff"/>
  </g>
</svg>
