<svg xmlns="http://www.w3.org/2000/svg" width="32" height="32" viewBox="0 0 32 32">
  <g id="Group_5" data-name="Group 5" transform="translate(-146.08 -668.592)">
    <path id="Path_87" data-name="Path 87" d="M686.08,275.82h0a16,16,0,0,1-16-16h0a16,16,0,0,1,16-16h0a16,16,0,0,1,16,16h0A16,16,0,0,1,686.08,275.82Z" transform="translate(-524 424.772)" fill="#3a559f"/>
    <path id="Path_88" data-name="Path 88" d="M697.955,277.337h3.893v-9.749h2.716l.294-3.264h-3.01V262.46c0-.767.156-1.07.892-1.07h2.141V258h-2.72c-2.9,0-4.205,1.275-4.205,3.719v2.6H695.93v3.3h2.025v9.709Z" transform="translate(-538.758 416.719)" fill="#fff"/>
  </g>
</svg>
