<svg xmlns="http://www.w3.org/2000/svg" width="32" height="32" viewBox="0 0 32 32">
  <g id="Group_4" data-name="Group 4" transform="translate(-193.23 -554.496)">
    <path id="Path_83" data-name="Path 83" d="M582.219,377.45h0a15.994,15.994,0,0,1-15.989-16h0a15.994,15.994,0,0,1,15.989-16h0a15.994,15.994,0,0,1,16.011,16h0a15.994,15.994,0,0,1-15.993,16Z" transform="translate(-373 209.046)" fill="#2867b2"/>
    <path id="Path_84" data-name="Path 84" d="M125.83,177.465h3.452V166.31H125.83v11.155Z" transform="translate(76.095 400.351)" fill="#fff"/>
    <path id="Path_85" data-name="Path 85" d="M587.162,365.441a2.061,2.061,0,1,0-2.042-2.061A2.061,2.061,0,0,0,587.162,365.441Z" transform="translate(-383.519 200.215)" fill="#fff"/>
    <path id="Path_86" data-name="Path 86" d="M601.312,378.222c0-1.568.721-2.5,2.1-2.5,1.27,0,1.861.893,1.861,2.5v5.852h3.438v-7.061c0-2.986-1.693-4.433-4.061-4.433a3.889,3.889,0,0,0-3.358,1.861v-1.5H598V384.1h3.312Z" transform="translate(-390.894 193.75)" fill="#fff"/>
  </g>
</svg>
